<svg width="128" height="128" viewBox="0 0 128 128" fill="none" xmlns="http://www.w3.org/2000/svg">
<rect width="128" height="128" fill="white"/>
<g clip-path="url(#clip0)">
<path d="M61.905 40.3255C61.4472 40.0519 60.8996 39.9714 60.3825 40.1016L53.3908 41.8638C52.8737 41.9942 52.4296 42.3246 52.1561 42.7824C51.8826 43.2402 51.8022 43.7879 51.9325 44.305L53.6947 51.2967C53.8251 51.8137 54.1556 52.2577 54.6134 52.5311L64.3779 58.3644C64.8357 58.6377 65.3833 58.7181 65.9003 58.5878C66.4173 58.4575 66.8613 58.1272 67.1348 57.6695L72.3643 48.9156C72.6377 48.4579 72.7181 47.9103 72.5878 47.3933C72.4575 46.8763 72.1272 46.4322 71.6695 46.1587L61.905 40.3255V40.3255ZM58.0353 47.9507C57.5181 48.081 56.9703 48.0004 56.5124 47.7267C56.0546 47.4531 55.7242 47.0087 55.594 46.4915C55.4637 45.9742 55.5443 45.4264 55.818 44.9685C56.0916 44.5107 56.536 44.1803 57.0532 44.0501C57.5705 43.9199 58.1183 44.0004 58.5762 44.2741C59.034 44.5478 59.3644 44.9921 59.4946 45.5094C59.6249 46.0266 59.5443 46.5744 59.2706 47.0323C58.9969 47.4901 58.5526 47.8205 58.0353 47.9507V47.9507Z" fill="#333333"/>
</g>
<path d="M92.3889 30H34.6111C33.6534 30 32.7349 30.3826 32.0577 31.0637C31.3805 31.7447 31 32.6684 31 33.6316V43.0375C31 44.9368 31.7692 46.8034 33.1053 48.1471L52.6667 67.8196V95.3689C52.6674 95.9877 52.8251 96.596 53.1249 97.1363C53.4247 97.6765 53.8567 98.1309 54.3799 98.4564C54.9032 98.7819 55.5003 98.9676 56.1149 98.9961C56.7295 99.0246 57.3412 98.8949 57.8919 98.6192L72.3364 91.356C73.5606 90.7386 74.3333 89.4821 74.3333 88.1057V67.8196L93.8947 48.1471C95.2308 46.8034 96 44.9368 96 43.0375V33.6316C96 32.6684 95.6195 31.7447 94.9423 31.0637C94.2651 30.3826 93.3466 30 92.3889 30V30ZM68.1692 63.7485C67.8332 64.0852 67.5667 64.4854 67.3851 64.926C67.2036 65.3667 67.1104 65.8391 67.1111 66.3161V85.8614L59.8889 89.493V66.3161C59.8896 65.8391 59.7964 65.3667 59.6149 64.926C59.4333 64.4854 59.1668 64.0852 58.8308 63.7485L38.2222 43.0375V37.2632H88.7814L88.7886 43.012L68.1692 63.7485V63.7485Z" fill="black"/>
<path d="M92.3889 30H34.6111C33.6534 30 32.7349 30.3826 32.0577 31.0637C31.3805 31.7447 31 32.6684 31 33.6316V43.0375C31 44.9368 31.7692 46.8034 33.1053 48.1471L52.6667 67.8196V95.3689C52.6674 95.9877 52.8251 96.596 53.1249 97.1363C53.4247 97.6765 53.8567 98.1309 54.3799 98.4564C54.9032 98.7819 55.5003 98.9676 56.1149 98.9961C56.7295 99.0246 57.3412 98.8949 57.8919 98.6192L72.3364 91.356C73.5606 90.7386 74.3333 89.4821 74.3333 88.1057V67.8196L93.8947 48.1471C95.2308 46.8034 96 44.9368 96 43.0375V33.6316C96 32.6684 95.6195 31.7447 94.9423 31.0637C94.2651 30.3826 93.3466 30 92.3889 30V30ZM68.1692 63.7485C67.8332 64.0852 67.5667 64.4854 67.3851 64.926C67.2036 65.3667 67.1104 65.8391 67.1111 66.3161V85.8614L59.8889 89.493V66.3161C59.8896 65.8391 59.7964 65.3667 59.6149 64.926C59.4333 64.4854 59.1668 64.0852 58.8308 63.7485L38.2222 43.0375V37.2632H88.7814L88.7886 43.012L68.1692 63.7485V63.7485Z" fill="url(#paint0_linear)"/>
<g clip-path="url(#clip1)">
<path d="M98.5989 108H121.39C122.833 108 124 109.186 124 110.651V119.489C124 120.955 122.833 122.141 121.39 122.141H113.217L114.339 124.932L109.405 122.141H98.6102C97.1679 122.141 96.0003 120.955 96.0003 119.489V110.651C95.9888 109.198 97.1563 108 98.5989 108Z" fill="#9B5C8F"/>
<path d="M97.5945 110.417C97.7538 110.197 97.9928 110.081 98.3115 110.058C98.8921 110.012 99.2222 110.289 99.3018 110.891C99.6546 113.307 100.042 115.354 100.451 117.031L102.944 112.209C103.172 111.769 103.456 111.538 103.798 111.515C104.299 111.48 104.606 111.804 104.731 112.486C105.016 114.024 105.38 115.331 105.812 116.441C106.108 113.504 106.609 111.388 107.315 110.081C107.485 109.758 107.736 109.596 108.066 109.572C108.328 109.549 108.567 109.63 108.783 109.804C108.999 109.977 109.113 110.197 109.136 110.463C109.147 110.671 109.113 110.844 109.022 111.018C108.578 111.85 108.214 113.25 107.918 115.192C107.634 117.077 107.531 118.545 107.599 119.598C107.622 119.886 107.577 120.141 107.463 120.361C107.326 120.615 107.121 120.754 106.859 120.777C106.564 120.8 106.256 120.661 105.96 120.349C104.902 119.251 104.059 117.609 103.445 115.423C102.705 116.903 102.159 118.013 101.806 118.753C101.134 120.06 100.565 120.731 100.087 120.765C99.7798 120.788 99.518 120.522 99.2904 119.968C98.71 118.453 98.0839 115.527 97.4125 111.191C97.3668 110.891 97.4351 110.625 97.5945 110.417V110.417ZM122.055 112.232C121.645 111.504 121.042 111.064 120.234 110.891C120.017 110.844 119.812 110.821 119.619 110.821C118.526 110.821 117.638 111.399 116.944 112.556C116.352 113.539 116.056 114.625 116.056 115.816C116.056 116.707 116.238 117.47 116.603 118.106C117.012 118.834 117.616 119.274 118.424 119.447C118.64 119.493 118.845 119.517 119.038 119.517C120.142 119.517 121.03 118.938 121.713 117.782C122.305 116.788 122.601 115.701 122.601 114.51C122.612 113.608 122.419 112.856 122.055 112.232V112.232ZM120.621 115.435C120.461 116.198 120.177 116.765 119.755 117.146C119.425 117.447 119.118 117.574 118.834 117.516C118.56 117.458 118.333 117.216 118.162 116.765C118.025 116.406 117.957 116.048 117.957 115.712C117.957 115.423 117.98 115.134 118.037 114.868C118.139 114.394 118.333 113.932 118.64 113.492C119.016 112.926 119.414 112.695 119.824 112.775C120.097 112.833 120.325 113.076 120.495 113.527C120.632 113.885 120.7 114.244 120.7 114.579C120.7 114.88 120.677 115.169 120.621 115.435V115.435ZM114.929 112.232C114.52 111.504 113.905 111.064 113.108 110.891C112.892 110.844 112.687 110.821 112.494 110.821C111.401 110.821 110.513 111.399 109.819 112.556C109.227 113.539 108.931 114.625 108.931 115.816C108.931 116.707 109.113 117.47 109.477 118.106C109.887 118.834 110.49 119.274 111.298 119.447C111.515 119.493 111.72 119.517 111.913 119.517C113.017 119.517 113.905 118.938 114.588 117.782C115.18 116.788 115.476 115.701 115.476 114.51C115.476 113.608 115.294 112.856 114.929 112.232V112.232ZM113.484 115.435C113.325 116.198 113.04 116.765 112.619 117.146C112.289 117.447 111.981 117.574 111.697 117.516C111.424 117.458 111.196 117.216 111.025 116.765C110.889 116.406 110.821 116.048 110.821 115.712C110.821 115.423 110.843 115.134 110.9 114.868C111.003 114.394 111.196 113.932 111.503 113.492C111.879 112.926 112.277 112.695 112.687 112.775C112.96 112.833 113.188 113.076 113.359 113.527C113.495 113.885 113.564 114.244 113.564 114.579C113.575 114.88 113.541 115.169 113.484 115.435V115.435Z" fill="white"/>
</g>
<path d="M77.962 110.136C78.3447 110.136 78.6713 110.164 78.942 110.22C79.222 110.276 79.418 110.327 79.53 110.374L79.292 111.494C79.18 111.438 79.0213 111.387 78.816 111.34C78.6107 111.284 78.3587 111.256 78.06 111.256C77.4533 111.256 77.0287 111.424 76.786 111.76C76.5433 112.087 76.422 112.53 76.422 113.09V113.72H79.222V114.812H76.422V121H75.12V113.062C75.12 112.129 75.3487 111.41 75.806 110.906C76.2633 110.393 76.982 110.136 77.962 110.136ZM86.9464 117.36C86.9464 117.939 86.8624 118.461 86.6944 118.928C86.5264 119.395 86.2884 119.796 85.9804 120.132C85.6817 120.468 85.3224 120.729 84.9024 120.916C84.4824 121.093 84.0251 121.182 83.5304 121.182C83.0357 121.182 82.5784 121.093 82.1584 120.916C81.7384 120.729 81.3744 120.468 81.0664 120.132C80.7677 119.796 80.5344 119.395 80.3664 118.928C80.1984 118.461 80.1144 117.939 80.1144 117.36C80.1144 116.791 80.1984 116.273 80.3664 115.806C80.5344 115.33 80.7677 114.924 81.0664 114.588C81.3744 114.252 81.7384 113.995 82.1584 113.818C82.5784 113.631 83.0357 113.538 83.5304 113.538C84.0251 113.538 84.4824 113.631 84.9024 113.818C85.3224 113.995 85.6817 114.252 85.9804 114.588C86.2884 114.924 86.5264 115.33 86.6944 115.806C86.8624 116.273 86.9464 116.791 86.9464 117.36ZM85.5884 117.36C85.5884 116.539 85.4017 115.89 85.0284 115.414C84.6644 114.929 84.1651 114.686 83.5304 114.686C82.8957 114.686 82.3917 114.929 82.0184 115.414C81.6544 115.89 81.4724 116.539 81.4724 117.36C81.4724 118.181 81.6544 118.835 82.0184 119.32C82.3917 119.796 82.8957 120.034 83.5304 120.034C84.1651 120.034 84.6644 119.796 85.0284 119.32C85.4017 118.835 85.5884 118.181 85.5884 117.36ZM91.4662 113.566C91.5782 113.566 91.7042 113.575 91.8442 113.594C91.9935 113.603 92.1382 113.622 92.2782 113.65C92.4182 113.669 92.5442 113.692 92.6562 113.72C92.7775 113.739 92.8662 113.757 92.9222 113.776L92.6982 114.91C92.5955 114.873 92.4229 114.831 92.1802 114.784C91.9469 114.728 91.6435 114.7 91.2702 114.7C91.0275 114.7 90.7849 114.728 90.5422 114.784C90.3089 114.831 90.1549 114.863 90.0802 114.882V121H88.7782V114.028C89.0862 113.916 89.4689 113.813 89.9262 113.72C90.3835 113.617 90.8969 113.566 91.4662 113.566Z" fill="black"/>
<defs>
<linearGradient id="paint0_linear" x1="63.5" y1="30" x2="63.5" y2="99" gradientUnits="userSpaceOnUse">
<stop stop-color="#28B83F"/>
<stop offset="1" stop-color="white" stop-opacity="0"/>
</linearGradient>
<clipPath id="clip0">
<rect width="24.1283" height="24.1283" fill="white" transform="translate(49 40.8969) rotate(-14.1463)"/>
</clipPath>
<clipPath id="clip1">
<rect width="28" height="17" fill="white" transform="translate(96 108)"/>
</clipPath>
</defs>
</svg>
